<svg xmlns="http://www.w3.org/2000/svg" width="23.955" height="19.164" viewBox="0 0 23.955 19.164"><defs><style>.a{fill:#797979;}</style></defs><path class="a" d="M240.4,281.926h6.324a.443.443,0,0,0,.392-.324l.333-1.163a.4.4,0,1,0-.768-.22l-.26.908H240.4a.4.4,0,1,0,0,.8Zm0,0" transform="translate(-228.022 -265.956)"/><path class="a" d="M380.706,244.935a.4.4,0,0,0,.494-.274l.179-.626a.4.4,0,0,0-.768-.22l-.179.626A.4.4,0,0,0,380.706,244.935Zm0,0" transform="translate(-361.431 -231.376)"/><path class="a" d="M22.758,7.985H13.175V2.795a2.795,2.795,0,1,0-5.59,0v1.2h2.4v-1.2a.4.4,0,1,1,.8,0v5.19H1.2A1.2,1.2,0,0,0,0,9.183v1.2H1.7l1.617,5.653A1.986,1.986,0,0,0,5.19,17.562v1.6h2.4v-1.6H16.37v1.6h2.4v-1.6a1.98,1.98,0,0,0,1.874-1.511l1.621-5.67h1.7v-1.2A1.2,1.2,0,0,0,22.758,7.985ZM10.381,1.6a1.2,1.2,0,0,0-1.2,1.2v.4h-.8v-.4a2,2,0,1,1,3.993,0v5.19h-.8V2.795A1.2,1.2,0,0,0,10.381,1.6ZM6.787,18.366h-.8v-.8h.8Zm11.179,0h-.8v-.8h.8Zm1.9-2.517a1.194,1.194,0,0,1-1.165.92H5.254a1.2,1.2,0,0,1-1.17-.938l-1.558-5.45h18.9Zm3.29-6.266H.8v-.4a.4.4,0,0,1,.4-.4h21.56a.4.4,0,0,1,.4.4Zm0,0"/><path class="a" d="M169.2,96a1.2,1.2,0,1,0,1.2,1.2A1.2,1.2,0,0,0,169.2,96Zm0,1.6a.4.4,0,1,1,.4-.4A.4.4,0,0,1,169.2,97.6Zm0,0" transform="translate(-159.616 -91.209)"/><path class="a" d="M265.2,98.4a1.2,1.2,0,1,0-1.2-1.2A1.2,1.2,0,0,0,265.2,98.4Zm0-1.6a.4.4,0,1,1-.4.4A.4.4,0,0,1,265.2,96.8Zm0,0" transform="translate(-250.825 -91.209)"/></svg>