<svg xmlns="http://www.w3.org/2000/svg" width="28.562" height="15.233" viewBox="0 0 28.562 15.233"><defs><style>.a{fill:#797979;}</style></defs><path class="a" d="M28.086,0h-1.9a.476.476,0,0,0-.476.476v2.9a4.846,4.846,0,0,0-3.332-1c-3.155,0-3.986,1.568-4.205,2.38H16.185V3.808a.953.953,0,0,0-.952-.952h-1.9a.953.953,0,0,0-.952.952h-10A1.43,1.43,0,0,0,.952,5.236v2.38H.476A.476.476,0,0,0,0,8.093v6.664a.476.476,0,0,0,.476.476H1.9a.476.476,0,0,0,.47-.4l.41-2.458H25.778l.41,2.458a.476.476,0,0,0,.47.4h1.428a.476.476,0,0,0,.476-.476V.476A.476.476,0,0,0,28.086,0ZM22.373,3.332c2.231,0,2.968.864,3.212,1.428H19.162C19.407,4.194,20.145,3.332,22.373,3.332Zm3.332,2.38v1.9H16.185v-1.9Zm-12.377-1.9h1.9V7.616h-1.9ZM1.9,5.236A.476.476,0,0,1,2.38,4.76h10V7.616H1.9ZM.952,8.569H25.706v2.856H.952ZM1.5,14.281H.952v-1.9h.866Zm26.109,0h-.549l-.4-2.419V.952h.952Zm0,0"/></svg>