<svg xmlns="http://www.w3.org/2000/svg" width="28.068" height="29.814" viewBox="0 0 28.068 29.814"><defs><style>.a{fill:#fff;}</style></defs><g transform="translate(-15)"><path class="a" d="M227.552,8.346a8.342,8.342,0,0,0-16.66-.619,11.945,11.945,0,0,1,10.369,8.965h6.291l-2.1-2.806a8.316,8.316,0,0,0,2.1-5.54Z" transform="translate(-184.485)"/><path class="a" d="M26.109,161.675a10.2,10.2,0,0,0-8.539,16.932L15,182.037H25.2a10.2,10.2,0,0,0,.914-20.362Zm-6.475,7.379H25.2v1.856H19.634Zm11.122,5.567H19.634v-1.856H30.756Z" transform="translate(0 -152.222)"/></g></svg>