<svg xmlns="http://www.w3.org/2000/svg" width="45.166" height="44.989" viewBox="0 0 45.166 44.989"><defs><style>.a{fill:#06aa46;}</style></defs><g transform="translate(0 -1)"><path class="a" d="M123.529,106.363a1.323,1.323,0,0,1,2.646,0v2.205H129.7V99.915l-4.852-4.159L120,99.915v8.654h3.529Zm-.882-5.293a1.323,1.323,0,0,1,1.323-1.323h1.764a1.323,1.323,0,1,1,0,2.646H123.97A1.323,1.323,0,0,1,122.646,101.07Z" transform="translate(-109.414 -86.397)"/><path class="a" d="M386.175,8.5V4.088a3.088,3.088,0,0,0-6.175,0V9.821h4.852A1.323,1.323,0,0,0,386.175,8.5Z" transform="translate(-346.479 0)"/><path class="a" d="M384.852,411H380v5.734a3.088,3.088,0,0,0,6.175,0v-4.411A1.323,1.323,0,0,0,384.852,411Z" transform="translate(-346.479 -373.832)"/><path class="a" d="M30.875,37.383a20.843,20.843,0,0,1-5.95,3.551L23.679,42.18A3.973,3.973,0,0,1,17.127,40.7H6.616a1.323,1.323,0,1,1,0-2.646H17.127a3.955,3.955,0,0,1,.938-1.484l1.25-1.25a20.8,20.8,0,0,1,4.659-7.154l6.9-6.9V4.087A5.7,5.7,0,0,1,31.781,1H4.852A4.857,4.857,0,0,0,0,5.852V41.137a4.857,4.857,0,0,0,4.852,4.852H31.781a5.7,5.7,0,0,1-.906-3.087ZM6.2,13.795l8.38-7.183a1.323,1.323,0,0,1,1.722,0l8.38,7.183A1.323,1.323,0,0,1,22.957,15.8l-.021-.018v7.709a1.323,1.323,0,0,1-1.323,1.323H9.263a1.323,1.323,0,0,1-1.323-1.323V15.786l-.021.018A1.323,1.323,0,0,1,6.2,13.795Zm.42,13.67H17.2a1.323,1.323,0,0,1,0,2.646H6.616a1.323,1.323,0,0,1,0-2.646Zm0,5.293H17.2a1.323,1.323,0,1,1,0,2.646H6.616a1.323,1.323,0,1,1,0-2.646Z" transform="translate(0 0)"/><path class="a" d="M244.756,212.22l-1.871,1.871-4.366-4.366L227.9,220.347a18.131,18.131,0,0,0-4.25,6.746l-1.658,1.658a1.323,1.323,0,0,0,1.871,1.871l1.658-1.658a18.132,18.132,0,0,0,6.746-4.25l10.621-10.621.312.312a1.325,1.325,0,0,1,0,1.871l-6.861,6.861a1.323,1.323,0,1,0,1.871,1.871l6.861-6.861a3.974,3.974,0,0,0,0-5.614Z" transform="translate(-202.052 -190.313)"/><path class="a" d="M440.516,161.5a3.091,3.091,0,0,0-4.366,0l-1.559,1.559,4.366,4.366,1.559-1.559A3.091,3.091,0,0,0,440.516,161.5Z" transform="translate(-396.253 -145.522)"/></g></svg>