<svg xmlns="http://www.w3.org/2000/svg" width="43.57" height="38.294" viewBox="0 0 43.57 38.294"><defs><style>.a{fill:#06aa46;}</style></defs><g transform="translate(0 -31)"><g transform="translate(5.341 31)"><g transform="translate(0 0)"><path class="a" d="M97.163,31H66.357a3.823,3.823,0,0,0-3.594,2.553h37.994A3.823,3.823,0,0,0,97.163,31Z" transform="translate(-62.763 -31)"/></g></g><g transform="translate(5.106 36.106)"><g transform="translate(0 0)"><path class="a" d="M60,91v2.553H89.529a6.39,6.39,0,0,1,6.382,6.382v13.806a3.823,3.823,0,0,0,2.553-3.594V91Z" transform="translate(-60 -91)"/></g></g><g transform="translate(0 41.212)"><path class="a" d="M34.635,151H3.829A3.834,3.834,0,0,0,0,154.829v1.276H38.464v-1.276A3.834,3.834,0,0,0,34.635,151Z" transform="translate(0 -151)"/></g><g transform="translate(7.659 59.082)"><g transform="translate(0 0)"><path class="a" d="M91.276,361a1.276,1.276,0,1,0,1.276,1.276A1.277,1.277,0,0,0,91.276,361Z" transform="translate(-90 -361)"/></g></g><g transform="translate(12.765 59.082)"><g transform="translate(0 0)"><path class="a" d="M151.276,361a1.276,1.276,0,1,0,1.276,1.276A1.277,1.277,0,0,0,151.276,361Z" transform="translate(-150 -361)"/></g></g><g transform="translate(0 51.424)"><path class="a" d="M0,271v14.041a3.834,3.834,0,0,0,3.829,3.829H34.635a3.834,3.834,0,0,0,3.829-3.829V271Zm14.041,12.765a3.8,3.8,0,0,1-2.553-1,3.829,3.829,0,1,1,0-5.667,3.823,3.823,0,1,1,2.553,6.663Zm18.041,0H21.7a1.276,1.276,0,1,1,0-2.553H32.082a1.276,1.276,0,1,1,0,2.553Zm0-5.106H21.7a1.276,1.276,0,1,1,0-2.553H32.082a1.276,1.276,0,0,1,0,2.553Z" transform="translate(0 -271)"/></g></g></svg>