<svg xmlns="http://www.w3.org/2000/svg" width="177.232" height="141.214" viewBox="0 0 177.232 141.214"><defs><style>.a{fill:#edfff4;}.b{fill:#06aa46;}.c{fill:#88b49d;}</style></defs><g transform="translate(-900 -337.822)"><g transform="translate(900 344.211)"><path class="a" d="M53.7,50.7c33.443,0,67.406-33.443,67.406,0A60.554,60.554,0,1,1,0,50.7C0,17.261,20.259,50.7,53.7,50.7Z" transform="translate(0 -6.137)"/><path class="a" d="M53.7,14.863c33.443,0,67.406-33.443,67.406,0A60.554,60.554,0,1,1,0,14.863C0-18.579,20.259,14.863,53.7,14.863Z" transform="translate(35.653 76.215) rotate(-39)"/></g><g transform="translate(937.065 337.822)"><ellipse class="b" cx="8.5" cy="8" rx="8.5" ry="8" transform="translate(24.264 46.385)"/><path class="b" d="M41.908,64H31.675A7.683,7.683,0,0,0,24,71.67v2.558H49.583V71.67A7.683,7.683,0,0,0,41.908,64Z" transform="translate(-3.533 2.521)"/><path class="c" d="M107.775,23.989H84.75V34.23a5.117,5.117,0,0,1-5.117,5.117H38.7a5.117,5.117,0,0,1-5.117-5.117V23.989H10.558A2.558,2.558,0,0,0,8,26.548V98.2a2.558,2.558,0,0,0,2.558,2.558h97.217a2.558,2.558,0,0,0,2.558-2.558V26.548A2.558,2.558,0,0,0,107.775,23.989ZM59.167,87.955a2.558,2.558,0,0,1-2.558,2.558h-30.7a2.558,2.558,0,0,1-2.558-2.558V82.838a12.774,12.774,0,0,1,8.417-11.972,12.792,12.792,0,1,1,18.983,0,12.774,12.774,0,0,1,8.417,11.972ZM92.425,85.4H71.958a2.558,2.558,0,1,1,0-5.117H92.425a2.558,2.558,0,0,1,0,5.117Zm0-10.233H71.958a2.558,2.558,0,1,1,0-5.117H92.425a2.558,2.558,0,0,1,0,5.117Zm0-10.233H71.958a2.558,2.558,0,1,1,0-5.117H92.425a2.558,2.558,0,1,1,0,5.117Z" transform="translate(-8 -8.647)"/><path class="b" d="M34.558,37.578H70.375a2.557,2.557,0,0,0,2.558-2.558V24.787a2.557,2.557,0,0,0-2.558-2.558H62.7a10.233,10.233,0,0,0-20.467,0H34.558A2.557,2.557,0,0,0,32,24.787V35.02a2.557,2.557,0,0,0,2.558,2.558Z" transform="translate(-1.3 -11.995)"/></g></g></svg>