<svg xmlns="http://www.w3.org/2000/svg" width="42.104" height="49.507" viewBox="0 0 42.104 49.507"><defs><style>.a{fill:#06aa46;}</style></defs><g transform="translate(-38.281)"><g transform="translate(50.355 8.559)"><g transform="translate(0)"><path class="a" d="M175.4,88.52l-12.248,9.422v3.275a11.225,11.225,0,0,1,2.9-1.6,11.394,11.394,0,0,1,14.795,7.138,11.435,11.435,0,0,1,.537,2.9h6.264V97.942Z" transform="translate(-163.153 -88.52)"/></g></g><g transform="translate(44.822)"><g transform="translate(0)"><path class="a" d="M123.707,0,105.926,13.679l2.367,3.077L123.707,4.9l15.415,11.857,2.367-3.077Z" transform="translate(-105.926)"/></g></g><g transform="translate(38.281 21.846)"><g transform="translate(0)"><path class="a" d="M65.7,234.2c0-.059,0-.118-.006-.178,0-.013,0-.025,0-.039q0-.091-.012-.183a.143.143,0,0,0,0-.02l0-.035c-.008-.108-.018-.216-.031-.324-.008-.063-.015-.126-.024-.189,0-.038-.011-.074-.016-.113,0,0,0-.009,0-.013s0-.021,0-.032l-.006-.036c0-.026-.009-.052-.014-.078s-.013-.076-.02-.114l-.015-.078c0-.026-.011-.053-.016-.079l-.029-.138a.1.1,0,0,1,0-.016,0,0,0,0,1,0,0l-.015-.061c-.011-.046-.022-.094-.034-.14-.007-.029-.015-.058-.022-.087l-.023-.087a.028.028,0,0,0,0-.009.115.115,0,0,1,0-.017c-.016-.056-.032-.113-.049-.169-.012-.039-.023-.078-.036-.118v0c-.006-.02-.013-.041-.019-.061l-.012-.036,0,0c-.015-.045-.03-.092-.046-.138s-.041-.113-.062-.169l-.026-.069c-.015-.041-.031-.081-.047-.122s-.033-.08-.05-.121-.034-.08-.051-.121-.036-.08-.054-.12-.049-.105-.074-.159l0-.007s0,0,0,0l-.011-.02-.067-.134v0l-.007-.014,0-.01a.073.073,0,0,0-.007-.012c-.022-.046-.046-.091-.072-.136s-.05-.093-.076-.138-.042-.073-.063-.11l0-.007-.048-.08c-.015-.027-.033-.054-.049-.081l-.05-.081c-.067-.107-.137-.213-.211-.318-.04-.058-.081-.116-.124-.173s-.083-.113-.127-.168l-.09-.114-.008-.01-.006-.007c-.014-.017-.027-.035-.042-.051s-.031-.039-.047-.057c-.031-.038-.062-.074-.094-.111s-.086-.1-.13-.147-.092-.1-.139-.15-.106-.111-.161-.166c-.1-.1-.209-.2-.316-.3l-.157-.138-.105-.089-.012-.01-.008-.006-.088-.072-.126-.1c-.1-.077-.2-.153-.3-.224L62,227.4l-.051-.036c-.038-.025-.076-.051-.115-.075l-.012-.008-.018-.012c-.035-.023-.071-.046-.106-.068s-.072-.044-.108-.066-.078-.047-.117-.07L61.356,227c-.045-.025-.089-.05-.135-.073l0,0-.1-.05c-.063-.033-.126-.065-.189-.095l-.006,0-.013-.006-.073-.035-.073-.034c-.052-.024-.105-.048-.158-.071-.127-.055-.254-.106-.383-.156s-.257-.093-.388-.135c-.054-.017-.109-.035-.163-.05l-.077-.023-.078-.022-.109-.03h0l-.021-.006-.009,0-.02,0c-.054-.014-.11-.028-.164-.041l-.011,0-.023,0-.131-.03-.155-.032-.162-.03-.163-.027-.163-.024-.2-.025-.038,0h-.012c-.07-.009-.139-.014-.209-.019l-.055,0-.149-.01-.124-.007-.124,0-.062,0h-.371l-.062,0-.124,0-.124.007-.149.01-.055,0-.129.011-.13.014-.2.025-.163.024-.163.027-.162.03-.155.032-.131.03-.023,0-.011,0c-.054.013-.11.026-.164.041l-.02,0-.009,0-.021.006h0l-.109.03-.078.022-.077.023c-.054.016-.109.033-.163.05-.131.043-.26.087-.388.135s-.256.1-.383.156c-.052.022-.105.046-.158.071l-.073.034-.073.035-.013.006-.092.045-.111.056-.078.042c-.049.026-.1.052-.148.08-.122.068-.242.138-.361.213a8.367,8.367,0,0,0-.7.486l-.124.1-.062.05-.061.05h0l-.111.094-.012.01-.126.111c-.107.1-.213.2-.316.3l-.151.154-.01.011-.112.122c-.038.041-.074.082-.109.123s-.058.065-.085.1c-.073.086-.144.173-.212.26-.022.027-.044.055-.065.083s-.042.054-.062.082-.054.072-.08.109l-.049.07-.049.07c-.065.093-.128.187-.187.281l-.089.143c-.058.1-.114.193-.168.291-.027.048-.053.1-.079.147s-.051.1-.076.148-.049.1-.073.15l-.07.151c-.092.2-.175.406-.249.612-.018.052-.037.1-.054.156-.026.076-.051.153-.074.23s-.047.155-.069.232c-.013.044-.024.087-.035.131l0,.006c0,.006,0,.013,0,.018l-.006.025c-.013.049-.024.1-.036.146-.017.075-.035.152-.05.227l0,.008a.028.028,0,0,1,0,.009,94.42,94.42,0,0,1-.008.037c0,.027-.01.054-.015.082s-.014.079-.021.119-.018.106-.026.16-.016.107-.023.161-.014.108-.02.162c-.014.108-.024.216-.031.324q0,.039-.006.078c0,.026,0,.052,0,.078s0,.053,0,.079l0,.078c0,.012,0,.024,0,.036s0,.021,0,.032v.02l0,.131q0,.122,0,.244c0,.02,0,.041,0,.061s0,.041,0,.061c0,.042,0,.083,0,.125s0,.082.007.124.006.1.01.149c0,.018,0,.037,0,.055.006.07.012.139.019.209,0,0,0,.008,0,.012s0,.025,0,.038c.008.066.016.131.025.2s.015.109.024.164.017.109.027.163q.057.326.141.649c.014.053.028.106.044.16s.03.106.046.16.032.106.049.16c.034.105.07.211.109.315.019.053.039.105.059.157s.042.1.063.156c.031.077.065.155.1.232s.071.153.107.229q.036.075.075.151c.025.05.051.1.078.15l.081.149c.055.1.113.2.173.294.03.048.061.1.092.144s.062.1.095.144l.048.071c.016.023.032.047.049.071.033.047.067.094.1.14l-2.036,2.036-1.6-1.6-7.393,7.392a3.724,3.724,0,0,0,5.266,5.266l7.391-7.391L50.416,243.5l2.075-2.075c.085.058.17.113.256.167.119.074.239.145.361.213.092.051.184.1.277.147l.146.073.007,0c.1.051.209.1.315.145.127.055.254.106.383.156s.257.093.388.135c.054.017.109.035.163.05l.077.023.078.022.109.03h0l.021.006.009,0,.02,0c.054.014.11.028.164.041l.011,0,.023,0,.131.03.155.032.162.03.163.027.163.024.2.025.13.014.129.011.055,0,.149.01.124.007.124,0,.062,0h.062c.082,0,.164,0,.248,0h.062l.062,0,.124,0,.124-.007.149-.01.055,0c.07,0,.139-.011.209-.019h.012l.038,0,.2-.025.163-.024.163-.027.162-.03.155-.032.131-.03.023,0,.011,0c.054-.013.11-.026.164-.041l.02,0,.009,0,.021-.006h0l.109-.03.078-.022.077-.023c.054-.015.109-.033.163-.05.131-.043.26-.087.388-.135s.256-.1.383-.156c.052-.022.105-.046.158-.071l.073-.034.073-.035.013-.006.006,0c.063-.03.126-.062.189-.095l.1-.05,0,0c.045-.023.091-.048.135-.073l.119-.068c.039-.022.078-.045.117-.07q.109-.064.215-.133l.018-.012.012-.008c.039-.024.077-.05.115-.075L62,241.4l.1-.073c.1-.072.2-.147.3-.224l.126-.1.088-.072.008-.006.012-.01.105-.089.157-.138c.107-.1.213-.2.316-.3s.2-.209.3-.316c.048-.053.1-.107.143-.162.022-.025.044-.051.066-.077l.023-.028.008-.01c.039-.047.078-.095.115-.143s.063-.079.092-.119l.007-.008.041-.054c.029-.039.058-.077.085-.116.009-.011.015-.02.022-.03l.013-.017.014-.02.065-.092,0,0a.06.06,0,0,0,.007-.01l.018-.027c.015-.02.028-.042.042-.062s.028-.042.042-.063l.077-.12c.025-.041.05-.08.074-.121s.049-.081.073-.122.047-.082.071-.123.047-.083.07-.126c.009-.016.017-.034.027-.05.027-.052.054-.1.08-.157.017-.034.035-.067.05-.1a.171.171,0,0,0,.01-.018l.007-.014.01-.021c.031-.064.06-.127.088-.19,0-.009.009-.017.013-.026l.008-.017,0-.01c.016-.037.032-.073.047-.109s.024-.057.036-.086l.035-.086q.1-.26.189-.524c0-.013.008-.026.013-.039a.014.014,0,0,1,0-.006c0-.011.006-.02.01-.031a.266.266,0,0,1,.008-.026c0-.012.007-.023.011-.035.01-.031.018-.062.028-.093s.02-.074.031-.11a.063.063,0,0,1,0-.013c.008-.031.015-.061.024-.092q.041-.155.075-.31c.011-.048.021-.1.031-.144s.02-.1.03-.154c.019-.1.037-.208.052-.312,0-.033.01-.065.014-.1,0,0,0-.008,0-.012.012-.087.022-.175.031-.263q.007-.062.012-.125a.012.012,0,0,0,0-.006c0-.044.008-.088.011-.132,0-.064.009-.127.012-.19,0-.012,0-.023,0-.036q0-.09.006-.18c0-.068,0-.134,0-.2v0C65.7,234.332,65.7,234.265,65.7,234.2Z" transform="translate(-38.281 -225.93)"/></g></g></g></svg>