<svg xmlns="http://www.w3.org/2000/svg" width="57" height="57" viewBox="0 0 57 57"><defs><style>.a{fill:#06aa46;}</style></defs><path class="a" d="M427.01,0A5.015,5.015,0,0,0,422,5.01V31.729a1.668,1.668,0,0,0,.106.586l3.34,8.906a1.67,1.67,0,0,0,3.127,0l3.34-8.906a1.668,1.668,0,0,0,.106-.586V5.01A5.015,5.015,0,0,0,427.01,0Zm-1.67,5.01a1.67,1.67,0,0,1,3.34,0V6.68h-3.34Zm3.34,25.049h-3.34V10.02h3.34Zm-2.6,3.34h1.86l-.93,2.48Z" transform="translate(-375.02)"/><path class="a" d="M46.2,42.527H38.965V1.67A1.67,1.67,0,0,0,37.295,0H1.67A1.67,1.67,0,0,0,0,1.67V50.877A6.13,6.13,0,0,0,6.123,57H41.748a6.13,6.13,0,0,0,6.123-6.123V44.2A1.67,1.67,0,0,0,46.2,42.527ZM6.123,53.66A2.786,2.786,0,0,1,3.34,50.877V3.34H35.625V50.877a6.087,6.087,0,0,0,.67,2.783Zm38.408-2.783a2.783,2.783,0,0,1-5.566,0v-5.01h5.566Z"/><path class="a" d="M137.256,422H121.67a1.67,1.67,0,0,0,0,3.34h15.586a1.67,1.67,0,0,0,0-3.34Z" transform="translate(-106.641 -375.02)"/><circle class="a" cx="1.5" cy="1.5" r="1.5" transform="translate(7 47)"/><path class="a" d="M137.256,362H121.67a1.67,1.67,0,0,0,0,3.34h15.586a1.67,1.67,0,0,0,0-3.34Z" transform="translate(-106.641 -321.699)"/><ellipse class="a" cx="1.5" cy="2" rx="1.5" ry="2" transform="translate(7 40)"/><path class="a" d="M137.256,302H121.67a1.67,1.67,0,0,0,0,3.34h15.586a1.67,1.67,0,0,0,0-3.34Z" transform="translate(-106.641 -268.379)"/><circle class="a" cx="1.5" cy="1.5" r="1.5" transform="translate(7 34)"/><path class="a" d="M137.256,242H121.67a1.67,1.67,0,0,0,0,3.34h15.586a1.67,1.67,0,0,0,0-3.34Z" transform="translate(-106.641 -215.059)"/><circle class="a" cx="1.5" cy="1.5" r="1.5" transform="translate(7 27)"/><path class="a" d="M137.256,182H121.67a1.67,1.67,0,0,0,0,3.34h15.586a1.67,1.67,0,0,0,0-3.34Z" transform="translate(-106.641 -161.738)"/><ellipse class="a" cx="1.5" cy="2" rx="1.5" ry="2" transform="translate(7 20)"/><path class="a" d="M137.256,122H121.67a1.67,1.67,0,0,0,0,3.34h15.586a1.67,1.67,0,0,0,0-3.34Z" transform="translate(-106.641 -108.418)"/><circle class="a" cx="1.5" cy="1.5" r="1.5" transform="translate(7 14)"/><path class="a" d="M137.256,62H121.67a1.67,1.67,0,0,0,0,3.34h15.586a1.67,1.67,0,0,0,0-3.34Z" transform="translate(-106.641 -55.098)"/><circle class="a" cx="1.5" cy="1.5" r="1.5" transform="translate(7 7)"/></svg>