<svg xmlns="http://www.w3.org/2000/svg" width="39.614" height="62" viewBox="0 0 39.614 62"><defs><style>.a{fill:#06aa46;}</style></defs><g transform="translate(-86.439 0)"><g transform="translate(99.285 36.696)"><path class="a" d="M198.28,283.386H186.937a1.295,1.295,0,1,0,0,2.59H198.28a1.295,1.295,0,1,0,0-2.59Z" transform="translate(-185.642 -283.386)"/></g><path class="a" d="M-13517.053,358.509a1.57,1.57,0,0,1-.376-.428l-1.107-1.842h-3.259v1.4a1.3,1.3,0,0,1-1.295,1.3,1.3,1.3,0,0,1-1.295-1.3v-1.4h-.881a1.3,1.3,0,0,1-1.295-1.3,1.3,1.3,0,0,1,1.295-1.3h.881v-1.683h-.881a1.3,1.3,0,0,1-1.295-1.3,1.3,1.3,0,0,1,1.295-1.3h.881v-3.082a1.3,1.3,0,0,1,1.295-1.3,1.3,1.3,0,0,1,1.039.524,1.571,1.571,0,0,1,.334.393l2.079,3.46h2.246v-3.082a1.3,1.3,0,0,1,1.294-1.3,1.3,1.3,0,0,1,1.295,1.3v3.082h.881a1.3,1.3,0,0,1,1.294,1.3,1.3,1.3,0,0,1-1.294,1.3h-.881v1.683h.881a1.3,1.3,0,0,1,1.294,1.3,1.3,1.3,0,0,1-1.294,1.3h-.881v1.4a1.3,1.3,0,0,1-1.295,1.3A1.293,1.293,0,0,1-13517.053,358.509Zm-3.04-4.86-1.01-1.683h-.692v1.683Zm2.7-.535v-1.148h-.69Z" transform="translate(13625.819 -330.161)"/><g transform="translate(93.885 42.005)"><g transform="translate(0)"><path class="a" d="M167.38,324.386H145.237a1.295,1.295,0,1,0,0,2.59H167.38a1.295,1.295,0,0,0,0-2.59Z" transform="translate(-143.942 -324.386)"/></g></g><g transform="translate(93.885 47.444)"><g transform="translate(0)"><path class="a" d="M167.38,366.386H145.237a1.295,1.295,0,1,0,0,2.59H167.38a1.295,1.295,0,0,0,0-2.59Z" transform="translate(-143.942 -366.386)"/></g></g><g transform="translate(86.439 0)"><g transform="translate(0 0)"><path class="a" d="M125.261.089a1.266,1.266,0,0,0-1.411.337l-2.758,3.017-2.758-3a1.29,1.29,0,0,0-1.826-.078l-.078.078-2.758,3L110.914.425a1.291,1.291,0,0,0-1.826-.078l-.078.078-2.758,3-2.758-3a1.291,1.291,0,0,0-1.826-.078l-.078.078-2.758,3-2.758-3A1.291,1.291,0,0,0,94.248.348L94.17.425l-2.758,3-2.771-3a1.26,1.26,0,0,0-2.2.868V60.7A1.271,1.271,0,0,0,87.683,62a1.247,1.247,0,0,0,.971-.414l2.758-3.017,2.758,3A1.29,1.29,0,0,0,96,61.649l.078-.078,2.758-3,2.758,3a1.291,1.291,0,0,0,1.826.078l.078-.078,2.758-3,2.758,3a1.291,1.291,0,0,0,1.826.078l.078-.078,2.758-3,2.758,3a1.291,1.291,0,0,0,1.826.078l.078-.078,2.758-3,2.758,3a1.284,1.284,0,0,0,.958.414,1.032,1.032,0,0,0,.44-.091,1.264,1.264,0,0,0,.8-1.2V1.28A1.23,1.23,0,0,0,125.261.089ZM121.1,55.343a1.3,1.3,0,0,0-.958.427l-2.758,3.017-2.758-3a1.291,1.291,0,0,0-1.826-.078l-.078.078-2.758,3-2.758-3a1.291,1.291,0,0,0-1.826-.078l-.078.078-2.758,3-2.758-3a1.291,1.291,0,0,0-1.826-.078l-.078.078-2.771,3L92.357,55.77a1.3,1.3,0,0,0-.958-.427,1.221,1.221,0,0,0-.932.427l-1.437,1.606V4.621l1.437,1.593a1.221,1.221,0,0,0,.932.427,1.3,1.3,0,0,0,.958-.427L95.115,3.2l2.758,3a1.291,1.291,0,0,0,1.826.078l.078-.078,2.758-3,2.758,3a1.291,1.291,0,0,0,1.826.078L107.2,6.2l2.758-3,2.758,3a1.291,1.291,0,0,0,1.826.078l.078-.078,2.758-3,2.758,3.017a1.3,1.3,0,0,0,.958.427,1.221,1.221,0,0,0,.932-.427l1.45-1.606V57.363l-1.437-1.593A1.221,1.221,0,0,0,121.1,55.343Z" transform="translate(-86.439 0)"/></g></g></g></svg>