<svg xmlns="http://www.w3.org/2000/svg" width="8.945" height="11.385" viewBox="0 0 8.945 11.385"><g transform="translate(-51.2)"><g transform="translate(51.2)"><g transform="translate(0)"><path d="M59.739,4.066h-.407V3.659a3.659,3.659,0,0,0-7.319,0v.407h-.407a.407.407,0,0,0-.407.407v6.506a.407.407,0,0,0,.407.407h8.132a.407.407,0,0,0,.407-.407V4.473A.407.407,0,0,0,59.739,4.066Zm-6.912-.407a2.846,2.846,0,1,1,5.692,0v.407H52.826Zm6.506,6.912H52.013V4.879h7.319Z" transform="translate(-51.2)"/></g></g><g transform="translate(54.453 6.099)"><g transform="translate(0)"><path d="M190.125,256.813a1.219,1.219,0,1,0-1.557,1.552v.888a.407.407,0,1,0,.813,0v-.888A1.217,1.217,0,0,0,190.125,256.813Zm-1.15.814a.407.407,0,1,1,.407-.407A.407.407,0,0,1,188.975,257.626Z" transform="translate(-187.756 -256)"/></g></g></g></svg>