<svg xmlns="http://www.w3.org/2000/svg" xmlns:xlink="http://www.w3.org/1999/xlink" width="306" height="298" viewBox="0 0 306 298"><defs><style>.a,.c{fill:#06aa46;}.a{stroke:#707070;}.b{clip-path:url(#a);}.c{opacity:0.199;}</style><clipPath id="a"><rect class="a" width="306" height="298" transform="translate(1040.982 264)"/></clipPath></defs><g class="b" transform="translate(-1040.982 -264)"><path class="c" d="M146.445,315.092C276.216,270.121,274.191,164.459,272.777,87.278c0-7.908-.289-15.623-.289-23.016V56.547a8.969,8.969,0,0,0-8.969-8.969h-7.811c-43.718,0-75.51-11.958-103.09-38.8l-5.4-5.24a8.969,8.969,0,0,0-12.5,0l-5.368,5.24c-27.613,26.841-59.4,38.8-103.09,38.8H18.506a8.969,8.969,0,0,0-8.969,8.969v7.747c0,7.393,0,15.076-.289,23.016-1.479,77.149-3.5,182.843,126.267,227.815h0A16.684,16.684,0,0,0,146.445,315.092Zm-28.32-118.938a5.079,5.079,0,0,1-2.957-6.429L127.094,156.2a22.5,22.5,0,1,1,27.806,0l11.8,33.624a5.079,5.079,0,0,1-2.957,6.429,62.908,62.908,0,0,1-45.614,0Z" transform="translate(1056.864 297.589)"/></g></svg>