<svg xmlns="http://www.w3.org/2000/svg" width="13.493" height="11.385" viewBox="0 0 13.493 11.385"><defs><style>.a{fill:#011627;}</style></defs><g transform="translate(0 -40)"><path class="a" d="M11.806,40H1.687a1.687,1.687,0,0,0,0,3.373h.422V49.7a1.687,1.687,0,0,0,3.162.817,1.687,1.687,0,0,0,2.952,0,1.687,1.687,0,0,0,3.162-.817V43.373h.422a1.687,1.687,0,1,0,0-3.373Zm.6,2.283a.837.837,0,0,1-.6.247h-.422v-.211a.422.422,0,1,0-.843,0V49.7a.843.843,0,0,1-1.677.13.65.65,0,0,0-1.285,0,.844.844,0,0,1-1.667,0,.65.65,0,0,0-1.285,0,.843.843,0,0,1-1.677-.13V42.319a.422.422,0,1,0-.843,0v.211H1.687a.843.843,0,0,1,0-1.687h10.12a.843.843,0,0,1,.6,1.44Z" transform="translate(0)"/><path class="a" d="M187.373,304.843h-2.952a.422.422,0,0,1,0-.843h2.952a.422.422,0,0,1,0,.843Z" transform="translate(-179.151 -257.043)"/><path class="a" d="M187.373,224.843h-2.952a.422.422,0,0,1,0-.843h2.952a.422.422,0,0,1,0,.843Z" transform="translate(-179.151 -179.151)"/></g></svg>