<svg xmlns="http://www.w3.org/2000/svg" width="18" height="24" viewBox="0 0 18 24"><defs><style>.a{fill:#fff;}</style></defs><path class="a" d="M12.25,6H5.75A1.752,1.752,0,0,1,4,4.25V2.75A.75.75,0,0,1,4.75,2h1.6a2.75,2.75,0,0,1,5.292,0h1.6a.75.75,0,0,1,.75.75v1.5A1.752,1.752,0,0,1,12.25,6Z"/><path class="a" d="M15.25,3H15V4.25A2.752,2.752,0,0,1,12.25,7H5.75A2.752,2.752,0,0,1,3,4.25V3H2.75A2.752,2.752,0,0,0,0,5.75v15.5A2.752,2.752,0,0,0,2.75,24h12.5A2.752,2.752,0,0,0,18,21.25V5.75A2.752,2.752,0,0,0,15.25,3Zm-1,18H3.75a.75.75,0,0,1,0-1.5h10.5a.75.75,0,0,1,0,1.5Zm0-3H3.75a.75.75,0,0,1,0-1.5h10.5a.75.75,0,0,1,0,1.5Zm0-3H3.75a.75.75,0,0,1,0-1.5h10.5a.75.75,0,0,1,0,1.5Zm0-3H3.75a.75.75,0,0,1,0-1.5h10.5a.75.75,0,0,1,0,1.5Z"/></svg>