<svg xmlns="http://www.w3.org/2000/svg" width="31.525" height="23.488" viewBox="0 0 31.525 23.488"><defs><style>.a{fill:#fff;}</style></defs><g transform="translate(0 -65.267)"><path class="a" d="M137.217,81.637a8.187,8.187,0,1,0-5.79-13.976A8.189,8.189,0,0,0,137.217,81.637Z" transform="translate(-121.077)"/><path class="a" d="M349.9,280.093l-5.668-5.669a10.051,10.051,0,0,1-4.066,4.119l5.642,5.643a2.894,2.894,0,0,0,4.092-4.093Z" transform="translate(-319.219 -196.279)"/><path class="a" d="M.916,216.761h3.94a.924.924,0,0,0,0-1.847H.916a.924.924,0,0,0,0,1.847Z" transform="translate(0 -140.433)"/><path class="a" d="M.916,280.761H6.334a.924.924,0,0,0,0-1.847H.916a.924.924,0,0,0,0,1.847Z" transform="translate(0 -200.493)"/><path class="a" d="M.916,344.761h9.357a.924.924,0,0,0,0-1.847H.916a.924.924,0,0,0,0,1.847Z" transform="translate(0 -260.552)"/><path class="a" d="M21.109,406.914H.917a.924.924,0,0,0,0,1.847H21.109A.924.924,0,0,0,21.109,406.914Z" transform="translate(0 -320.611)"/></g></svg>