<svg xmlns="http://www.w3.org/2000/svg" width="12.168" height="12.168" viewBox="0 0 12.168 12.168"><defs><style>.a{fill:#06aa46;}</style></defs><g transform="translate(0 0)"><g transform="translate(0 0)"><path class="a" d="M10.386,1.782a6.084,6.084,0,0,0-8.6,8.6,6.084,6.084,0,1,0,8.6-8.6Zm-4.3,9.673a5.371,5.371,0,1,1,5.371-5.371A5.377,5.377,0,0,1,6.084,11.455Z" transform="translate(0 0)"/></g></g><g transform="translate(3.073 4.027)"><path class="a" d="M135.218,169.572a.357.357,0,0,0-.5,0l-3.148,3.148-1.657-1.657a.356.356,0,0,0-.5.5l1.909,1.909a.356.356,0,0,0,.5,0l3.4-3.4A.356.356,0,0,0,135.218,169.572Z" transform="translate(-129.301 -169.467)"/></g></svg>